<svg xmlns="http://www.w3.org/2000/svg" width="20.795" height="83.163" viewBox="0 0 20.795 83.163">
  <defs>
    <style>
      .cls-1 {
        fill: #272727;
      }

      .cls-2 {
        fill: none;
        stroke: #000;
      }
    </style>
  </defs>
  <g id="グループ_83" data-name="グループ 83" transform="translate(-43.705 -1047.687)">
    <path id="パス_327" data-name="パス 327" class="cls-1" d="M-33.052-3.24a2.744,2.744,0,0,0,.4,1.388,2.673,2.673,0,0,0,2.386,1,4.223,4.223,0,0,0,1.395-.219,1.55,1.55,0,0,0,1.217-1.518,1.31,1.31,0,0,0-.513-1.169,5.177,5.177,0,0,0-1.627-.595l-1.36-.308a6.16,6.16,0,0,1-1.887-.663A2.1,2.1,0,0,1-34-7.205a2.9,2.9,0,0,1,.937-2.222,3.757,3.757,0,0,1,2.652-.868,4.607,4.607,0,0,1,2.683.762,2.751,2.751,0,0,1,1.1,2.437H-27.9a2.516,2.516,0,0,0-.437-1.237,2.542,2.542,0,0,0-2.112-.786,2.443,2.443,0,0,0-1.729.506A1.583,1.583,0,0,0-32.7-7.437a1.148,1.148,0,0,0,.615,1.08,9.028,9.028,0,0,0,1.825.547l1.408.321a4.315,4.315,0,0,1,1.572.636,2.381,2.381,0,0,1,.957,2.044A2.551,2.551,0,0,1-27.539-.424a5.434,5.434,0,0,1-2.82.718,4.217,4.217,0,0,1-2.933-.957A3.229,3.229,0,0,1-34.33-3.24Zm11.108-4.293a3.192,3.192,0,0,1,2.013.6A2.882,2.882,0,0,1-19-4.86h-1.2a2.208,2.208,0,0,0-.5-1.125,1.576,1.576,0,0,0-1.251-.448,1.729,1.729,0,0,0-1.682,1.148,4.562,4.562,0,0,0-.328,1.839,3.46,3.46,0,0,0,.465,1.853,1.594,1.594,0,0,0,1.463.752,1.6,1.6,0,0,0,1.213-.468,2.575,2.575,0,0,0,.619-1.282H-19A3.211,3.211,0,0,1-20.022-.461a3.2,3.2,0,0,1-2.1.673,2.8,2.8,0,0,1-2.29-1.049,4.016,4.016,0,0,1-.854-2.622,4.417,4.417,0,0,1,.937-3A3.026,3.026,0,0,1-21.943-7.533Zm4.211.212h1.169v1.265a2.794,2.794,0,0,1,.7-.9,1.826,1.826,0,0,1,1.292-.53q.034,0,.116.007l.28.027v1.3a1.838,1.838,0,0,0-.2-.027q-.092-.007-.2-.007a1.756,1.756,0,0,0-1.429.6,2.088,2.088,0,0,0-.5,1.377V0h-1.23ZM-10.2-.793a1.7,1.7,0,0,0,1.678-.926A4.615,4.615,0,0,0-8.066-3.78a3.67,3.67,0,0,0-.328-1.668A1.846,1.846,0,0,0-10.186-6.46a1.766,1.766,0,0,0-1.641.861,3.992,3.992,0,0,0-.513,2.078,3.473,3.473,0,0,0,.513,1.948A1.806,1.806,0,0,0-10.2-.793Zm.048-6.74a3.315,3.315,0,0,1,2.393.943,3.684,3.684,0,0,1,.978,2.775A4.762,4.762,0,0,1-7.643-.889,3.116,3.116,0,0,1-10.315.267a3.017,3.017,0,0,1-2.4-1.022A4.037,4.037,0,0,1-13.6-3.5a4.367,4.367,0,0,1,.937-2.939A3.143,3.143,0,0,1-10.151-7.533Zm4.867-2.509h1.23V0h-1.23Zm3.11,0h1.23V0h-1.23Z" transform="translate(54 1048) rotate(-90)"/>
    <path id="パス_94" data-name="パス 94" class="cls-2" d="M953.352,849.1,964,867.029V785.687" transform="translate(-900 262)"/>
  </g>
</svg>
